<svg width="188" height="188" viewBox="0 0 188 188" fill="none" xmlns="http://www.w3.org/2000/svg">
<mask id="mask0_208_27" style="mask-type:luminance" maskUnits="userSpaceOnUse" x="4" y="6" width="179" height="176">
<path d="M4.93677 6.38684H182.959V181.747H4.93677V6.38684Z" fill="white"/>
</mask>
<g mask="url(#mask0_208_27)">
<path d="M93.9476 6.41791C44.7915 6.41791 4.93665 46.2727 4.93665 95.4289C4.93665 137.138 33.6577 172.038 72.3774 181.695C71.962 180.494 71.6948 179.099 71.6948 177.371V162.157C68.0824 162.157 62.03 162.157 60.5093 162.157C54.4191 162.157 49.0047 159.539 46.3787 154.673C43.4635 149.266 42.9591 140.995 35.7343 135.936C33.5907 134.253 35.2225 132.331 37.6929 132.591C42.2545 133.882 46.0377 137.012 49.5977 141.655C53.1436 146.306 54.8125 147.359 61.4365 147.359C64.6481 147.359 69.4549 147.174 73.9793 146.462C76.4125 140.283 80.6184 134.594 85.7584 131.909C56.1179 128.86 41.9727 114.114 41.9727 94.0936C41.9727 85.4743 45.6443 77.1374 51.8827 70.1127C49.8355 63.1404 47.2614 48.9207 52.669 43.5058C66.0054 43.5058 74.0684 52.1549 76.0045 54.4913C82.6505 52.2141 89.9496 50.9234 97.6192 50.9234C105.304 50.9234 112.632 52.2141 119.294 54.5059C121.207 52.1843 129.277 43.5058 142.644 43.5058C148.074 48.9281 145.47 63.2069 143.401 70.1646C149.602 77.1741 153.251 85.4895 153.251 94.0936C153.251 114.099 139.128 128.838 109.532 131.901C117.676 136.151 123.618 148.094 123.618 157.091V177.371C123.618 178.142 123.447 178.699 123.358 179.359C158.043 167.201 182.959 134.267 182.959 95.4289C182.959 46.2727 143.104 6.41791 93.9476 6.41791Z" fill="white"/>
</g>
</svg>
