<svg width="277" height="277" viewBox="0 0 277 277" fill="none" xmlns="http://www.w3.org/2000/svg">
<path d="M0.253662 138.65V0.527344H276.5V276.774H0.253662" fill="#007ACC"/>
<path d="M60.8203 139.134V150.391H96.7325V252.603H122.216V150.391H158.128V139.342C158.128 133.126 158.128 128.084 157.852 127.946C157.852 127.739 135.96 127.67 109.371 127.67L61.0275 127.877V139.203L60.8203 139.134ZM222.218 127.601C229.262 129.258 234.649 132.435 239.483 137.477C242.039 140.239 245.837 145.074 246.113 146.317C246.113 146.731 234.165 154.811 226.914 159.3C226.638 159.508 225.533 158.334 224.428 156.538C220.837 151.427 217.176 149.217 211.444 148.803C203.157 148.25 197.632 152.601 197.632 159.853C197.632 162.063 198.046 163.306 198.875 165.102C200.74 168.9 204.193 171.179 214.897 175.875C234.649 184.37 243.213 189.964 248.392 197.975C254.262 206.953 255.575 221.042 251.638 231.608C247.218 243.142 236.445 250.946 221.044 253.501C216.209 254.33 205.16 254.192 199.98 253.294C188.93 251.222 178.364 245.697 171.872 238.584C169.316 235.821 164.413 228.431 164.689 227.948L167.314 226.29L177.673 220.282L185.477 215.724L187.272 218.141C189.552 221.732 194.662 226.567 197.632 228.224C206.61 232.851 218.627 232.23 224.566 226.843C227.121 224.495 228.226 222.009 228.226 218.556C228.226 215.379 227.743 213.928 226.154 211.511C223.944 208.473 219.524 205.986 207.093 200.461C192.797 194.384 186.72 190.516 181.057 184.577C177.811 180.986 174.841 175.392 173.46 170.765C172.424 166.759 172.079 156.952 173.046 153.016C176.015 139.203 186.444 129.535 201.361 126.772C206.195 125.805 217.591 126.22 222.356 127.463L222.218 127.601Z" fill="white"/>
</svg>
